<mxfile host="app.diagrams.net" modified="2023-02-23T10:58:58.261Z" agent="5.0 (Windows NT 10.0; Win64; x64) AppleWebKit/537.36 (KHTML, like Gecko) Chrome/110.0.0.0 Safari/537.36" etag="kV2Qx52_fFDjShnld1in" version="20.8.23" type="github">
  <diagram name="Page-1" id="vE7TyUqHkWsvvkvra4mK">
    <mxGraphModel dx="3900" dy="1803" grid="0" gridSize="10" guides="1" tooltips="1" connect="1" arrows="1" fold="1" page="0" pageScale="1" pageWidth="827" pageHeight="1169" math="0" shadow="0">
      <root>
        <mxCell id="0" />
        <mxCell id="1" parent="0" />
        <mxCell id="CXOL6XMP5lFYfug7rg1P-165" value="" style="rounded=0;whiteSpace=wrap;html=1;fontSize=25;fontStyle=1" parent="1" vertex="1">
          <mxGeometry x="886" y="158" width="1032" height="1370" as="geometry" />
        </mxCell>
        <mxCell id="Qo7bHahtneuEFLr2nxRp-27" value="" style="rounded=0;whiteSpace=wrap;html=1;labelBackgroundColor=none;fillColor=#F2CC8F;strokeColor=#E07A5F;fontColor=#393C56;fontSize=24;" parent="1" vertex="1">
          <mxGeometry x="25" y="154" width="260" height="510" as="geometry" />
        </mxCell>
        <mxCell id="Qo7bHahtneuEFLr2nxRp-1" value="Quản lí thiết bị&amp;nbsp;" style="ellipse;whiteSpace=wrap;html=1;labelBackgroundColor=none;fillColor=#F2CC8F;strokeColor=#E07A5F;fontColor=#393C56;fontSize=24;" parent="1" vertex="1">
          <mxGeometry x="70" y="177" width="180" height="80" as="geometry" />
        </mxCell>
        <mxCell id="Qo7bHahtneuEFLr2nxRp-2" value="Quản lí nhân viên" style="ellipse;whiteSpace=wrap;html=1;labelBackgroundColor=none;fillColor=#F2CC8F;strokeColor=#E07A5F;fontColor=#393C56;fontSize=24;" parent="1" vertex="1">
          <mxGeometry x="77" y="269" width="180" height="80" as="geometry" />
        </mxCell>
        <mxCell id="Qo7bHahtneuEFLr2nxRp-4" value="Quản lí khách hàng" style="ellipse;whiteSpace=wrap;html=1;labelBackgroundColor=none;fillColor=#F2CC8F;strokeColor=#E07A5F;fontColor=#393C56;fontSize=24;" parent="1" vertex="1">
          <mxGeometry x="77" y="357" width="180" height="80" as="geometry" />
        </mxCell>
        <mxCell id="Qo7bHahtneuEFLr2nxRp-6" value="Quản lí lịch tập" style="ellipse;whiteSpace=wrap;html=1;labelBackgroundColor=none;fillColor=#F2CC8F;strokeColor=#E07A5F;fontColor=#393C56;fontSize=24;" parent="1" vertex="1">
          <mxGeometry x="70" y="451" width="180" height="80" as="geometry" />
        </mxCell>
        <mxCell id="Qo7bHahtneuEFLr2nxRp-10" value="Quản lí &lt;br&gt;doanh thu&amp;nbsp;" style="ellipse;whiteSpace=wrap;html=1;labelBackgroundColor=none;fillColor=#F2CC8F;strokeColor=#E07A5F;fontColor=#393C56;fontSize=24;" parent="1" vertex="1">
          <mxGeometry x="70" y="554" width="180" height="80" as="geometry" />
        </mxCell>
        <mxCell id="Qo7bHahtneuEFLr2nxRp-11" value="Huấn luyện viên" style="shape=umlActor;verticalLabelPosition=bottom;verticalAlign=top;html=1;outlineConnect=0;labelBackgroundColor=none;fillColor=#F2CC8F;strokeColor=#E07A5F;fontColor=#393C56;fontSize=24;" parent="1" vertex="1">
          <mxGeometry x="-115" y="279" width="30" height="60" as="geometry" />
        </mxCell>
        <mxCell id="Qo7bHahtneuEFLr2nxRp-12" value="Admin" style="shape=umlActor;verticalLabelPosition=bottom;verticalAlign=top;html=1;outlineConnect=0;labelBackgroundColor=none;fillColor=#F2CC8F;strokeColor=#E07A5F;fontColor=#393C56;fontSize=24;" parent="1" vertex="1">
          <mxGeometry x="405" y="344" width="30" height="60" as="geometry" />
        </mxCell>
        <mxCell id="Qo7bHahtneuEFLr2nxRp-13" value="Khách hàng&lt;br style=&quot;font-size: 24px;&quot;&gt;" style="shape=umlActor;verticalLabelPosition=bottom;verticalAlign=top;html=1;outlineConnect=0;labelBackgroundColor=none;fillColor=#F2CC8F;strokeColor=#E07A5F;fontColor=#393C56;fontSize=24;" parent="1" vertex="1">
          <mxGeometry x="-115" y="574" width="30" height="60" as="geometry" />
        </mxCell>
        <mxCell id="Qo7bHahtneuEFLr2nxRp-14" value="" style="endArrow=none;html=1;rounded=0;exitX=1;exitY=0.3333333333333333;exitDx=0;exitDy=0;exitPerimeter=0;entryX=0;entryY=0.5;entryDx=0;entryDy=0;labelBackgroundColor=none;strokeColor=#E07A5F;fontColor=default;fontSize=24;" parent="1" source="Qo7bHahtneuEFLr2nxRp-13" target="Qo7bHahtneuEFLr2nxRp-6" edge="1">
          <mxGeometry width="50" height="50" relative="1" as="geometry">
            <mxPoint x="95" y="414" as="sourcePoint" />
            <mxPoint x="145" y="364" as="targetPoint" />
          </mxGeometry>
        </mxCell>
        <mxCell id="Qo7bHahtneuEFLr2nxRp-15" value="" style="endArrow=none;html=1;rounded=0;exitX=1;exitY=0.3333333333333333;exitDx=0;exitDy=0;exitPerimeter=0;entryX=0;entryY=0.5;entryDx=0;entryDy=0;labelBackgroundColor=none;strokeColor=#E07A5F;fontColor=default;fontSize=24;" parent="1" source="Qo7bHahtneuEFLr2nxRp-13" target="Qo7bHahtneuEFLr2nxRp-10" edge="1">
          <mxGeometry width="50" height="50" relative="1" as="geometry">
            <mxPoint x="-75" y="604" as="sourcePoint" />
            <mxPoint x="95" y="514" as="targetPoint" />
          </mxGeometry>
        </mxCell>
        <mxCell id="Qo7bHahtneuEFLr2nxRp-16" value="" style="endArrow=none;html=1;rounded=0;exitX=1;exitY=0.3333333333333333;exitDx=0;exitDy=0;exitPerimeter=0;entryX=0;entryY=0.5;entryDx=0;entryDy=0;labelBackgroundColor=none;strokeColor=#E07A5F;fontColor=default;fontSize=24;" parent="1" source="Qo7bHahtneuEFLr2nxRp-11" target="Qo7bHahtneuEFLr2nxRp-1" edge="1">
          <mxGeometry width="50" height="50" relative="1" as="geometry">
            <mxPoint x="95" y="414" as="sourcePoint" />
            <mxPoint x="145" y="364" as="targetPoint" />
          </mxGeometry>
        </mxCell>
        <mxCell id="Qo7bHahtneuEFLr2nxRp-17" value="" style="endArrow=none;html=1;rounded=0;exitX=1;exitY=0.3333333333333333;exitDx=0;exitDy=0;exitPerimeter=0;entryX=0;entryY=0.5;entryDx=0;entryDy=0;labelBackgroundColor=none;strokeColor=#E07A5F;fontColor=default;fontSize=24;" parent="1" source="Qo7bHahtneuEFLr2nxRp-11" target="Qo7bHahtneuEFLr2nxRp-4" edge="1">
          <mxGeometry width="50" height="50" relative="1" as="geometry">
            <mxPoint x="-75" y="304" as="sourcePoint" />
            <mxPoint x="95" y="214" as="targetPoint" />
          </mxGeometry>
        </mxCell>
        <mxCell id="Qo7bHahtneuEFLr2nxRp-19" value="" style="endArrow=none;html=1;rounded=0;entryX=0;entryY=0.5;entryDx=0;entryDy=0;labelBackgroundColor=none;strokeColor=#E07A5F;fontColor=default;fontSize=24;exitX=1;exitY=0.3333333333333333;exitDx=0;exitDy=0;exitPerimeter=0;" parent="1" source="Qo7bHahtneuEFLr2nxRp-11" target="Qo7bHahtneuEFLr2nxRp-6" edge="1">
          <mxGeometry width="50" height="50" relative="1" as="geometry">
            <mxPoint x="-85" y="294" as="sourcePoint" />
            <mxPoint x="145" y="364" as="targetPoint" />
          </mxGeometry>
        </mxCell>
        <mxCell id="Qo7bHahtneuEFLr2nxRp-20" value="" style="endArrow=none;html=1;rounded=0;entryX=0;entryY=0.3333333333333333;entryDx=0;entryDy=0;entryPerimeter=0;exitX=1;exitY=0.5;exitDx=0;exitDy=0;labelBackgroundColor=none;strokeColor=#E07A5F;fontColor=default;fontSize=24;" parent="1" source="Qo7bHahtneuEFLr2nxRp-1" target="Qo7bHahtneuEFLr2nxRp-12" edge="1">
          <mxGeometry width="50" height="50" relative="1" as="geometry">
            <mxPoint x="95" y="414" as="sourcePoint" />
            <mxPoint x="145" y="364" as="targetPoint" />
          </mxGeometry>
        </mxCell>
        <mxCell id="Qo7bHahtneuEFLr2nxRp-21" value="" style="endArrow=none;html=1;rounded=0;entryX=1;entryY=0.5;entryDx=0;entryDy=0;exitX=0;exitY=0.3333333333333333;exitDx=0;exitDy=0;exitPerimeter=0;labelBackgroundColor=none;strokeColor=#E07A5F;fontColor=default;fontSize=24;" parent="1" source="Qo7bHahtneuEFLr2nxRp-12" target="Qo7bHahtneuEFLr2nxRp-2" edge="1">
          <mxGeometry width="50" height="50" relative="1" as="geometry">
            <mxPoint x="-65" y="314" as="sourcePoint" />
            <mxPoint x="105" y="224" as="targetPoint" />
          </mxGeometry>
        </mxCell>
        <mxCell id="Qo7bHahtneuEFLr2nxRp-22" value="" style="endArrow=none;html=1;rounded=0;exitX=1;exitY=0.5;exitDx=0;exitDy=0;entryX=0;entryY=0.3333333333333333;entryDx=0;entryDy=0;entryPerimeter=0;labelBackgroundColor=none;strokeColor=#E07A5F;fontColor=default;fontSize=24;" parent="1" source="Qo7bHahtneuEFLr2nxRp-4" target="Qo7bHahtneuEFLr2nxRp-12" edge="1">
          <mxGeometry width="50" height="50" relative="1" as="geometry">
            <mxPoint x="-55" y="324" as="sourcePoint" />
            <mxPoint x="115" y="234" as="targetPoint" />
          </mxGeometry>
        </mxCell>
        <mxCell id="Qo7bHahtneuEFLr2nxRp-23" value="" style="endArrow=none;html=1;rounded=0;exitX=1;exitY=0.5;exitDx=0;exitDy=0;entryX=0;entryY=0.3333333333333333;entryDx=0;entryDy=0;entryPerimeter=0;labelBackgroundColor=none;strokeColor=#E07A5F;fontColor=default;fontSize=24;" parent="1" source="Qo7bHahtneuEFLr2nxRp-6" target="Qo7bHahtneuEFLr2nxRp-12" edge="1">
          <mxGeometry width="50" height="50" relative="1" as="geometry">
            <mxPoint x="-45" y="334" as="sourcePoint" />
            <mxPoint x="125" y="244" as="targetPoint" />
          </mxGeometry>
        </mxCell>
        <mxCell id="Qo7bHahtneuEFLr2nxRp-24" value="" style="endArrow=none;html=1;rounded=0;exitX=1;exitY=0.5;exitDx=0;exitDy=0;entryX=0;entryY=0.3333333333333333;entryDx=0;entryDy=0;entryPerimeter=0;labelBackgroundColor=none;strokeColor=#E07A5F;fontColor=default;fontSize=24;" parent="1" source="Qo7bHahtneuEFLr2nxRp-10" target="Qo7bHahtneuEFLr2nxRp-12" edge="1">
          <mxGeometry width="50" height="50" relative="1" as="geometry">
            <mxPoint x="-35" y="344" as="sourcePoint" />
            <mxPoint x="135" y="254" as="targetPoint" />
          </mxGeometry>
        </mxCell>
        <mxCell id="CXOL6XMP5lFYfug7rg1P-2" value="Quản lí thiết bị" style="ellipse;whiteSpace=wrap;html=1;fontSize=25;fontStyle=1" parent="1" vertex="1">
          <mxGeometry x="1033" y="450" width="222" height="80" as="geometry" />
        </mxCell>
        <mxCell id="CXOL6XMP5lFYfug7rg1P-141" style="edgeStyle=none;rounded=0;orthogonalLoop=1;jettySize=auto;html=1;exitX=1;exitY=0.3333333333333333;exitDx=0;exitDy=0;exitPerimeter=0;entryX=0;entryY=0.5;entryDx=0;entryDy=0;dashed=1;fontSize=25;endArrow=none;endFill=0;fontStyle=1" parent="1" source="CXOL6XMP5lFYfug7rg1P-36" target="CXOL6XMP5lFYfug7rg1P-110" edge="1">
          <mxGeometry relative="1" as="geometry" />
        </mxCell>
        <mxCell id="CXOL6XMP5lFYfug7rg1P-142" style="edgeStyle=none;rounded=0;orthogonalLoop=1;jettySize=auto;html=1;exitX=1;exitY=0.3333333333333333;exitDx=0;exitDy=0;exitPerimeter=0;entryX=0;entryY=0.5;entryDx=0;entryDy=0;dashed=1;fontSize=25;endArrow=none;endFill=0;fontStyle=1" parent="1" source="CXOL6XMP5lFYfug7rg1P-36" target="CXOL6XMP5lFYfug7rg1P-111" edge="1">
          <mxGeometry relative="1" as="geometry" />
        </mxCell>
        <mxCell id="CXOL6XMP5lFYfug7rg1P-149" style="edgeStyle=none;rounded=0;orthogonalLoop=1;jettySize=auto;html=1;exitX=1;exitY=0.3333333333333333;exitDx=0;exitDy=0;exitPerimeter=0;entryX=0;entryY=0.5;entryDx=0;entryDy=0;dashed=1;fontSize=25;endArrow=none;endFill=0;fontStyle=1" parent="1" source="CXOL6XMP5lFYfug7rg1P-36" target="CXOL6XMP5lFYfug7rg1P-112" edge="1">
          <mxGeometry relative="1" as="geometry" />
        </mxCell>
        <mxCell id="CXOL6XMP5lFYfug7rg1P-168" style="edgeStyle=none;rounded=0;orthogonalLoop=1;jettySize=auto;html=1;exitX=1;exitY=0.3333333333333333;exitDx=0;exitDy=0;exitPerimeter=0;entryX=0;entryY=0.5;entryDx=0;entryDy=0;dashed=1;fontSize=25;endArrow=none;endFill=0;fontStyle=1" parent="1" source="CXOL6XMP5lFYfug7rg1P-36" target="CXOL6XMP5lFYfug7rg1P-2" edge="1">
          <mxGeometry relative="1" as="geometry" />
        </mxCell>
        <mxCell id="CXOL6XMP5lFYfug7rg1P-169" style="edgeStyle=none;rounded=0;orthogonalLoop=1;jettySize=auto;html=1;exitX=1;exitY=0.3333333333333333;exitDx=0;exitDy=0;exitPerimeter=0;entryX=0;entryY=0.5;entryDx=0;entryDy=0;dashed=1;fontSize=25;endArrow=none;endFill=0;fontStyle=1" parent="1" source="CXOL6XMP5lFYfug7rg1P-36" target="CXOL6XMP5lFYfug7rg1P-107" edge="1">
          <mxGeometry relative="1" as="geometry" />
        </mxCell>
        <mxCell id="CXOL6XMP5lFYfug7rg1P-36" value="Quản lí" style="shape=umlActor;verticalLabelPosition=bottom;verticalAlign=top;html=1;outlineConnect=0;fontSize=25;fontStyle=1" parent="1" vertex="1">
          <mxGeometry x="749" y="1109" width="30" height="60" as="geometry" />
        </mxCell>
        <mxCell id="CXOL6XMP5lFYfug7rg1P-96" style="rounded=0;orthogonalLoop=1;jettySize=auto;html=1;exitX=1;exitY=0.3333333333333333;exitDx=0;exitDy=0;exitPerimeter=0;entryX=0;entryY=0.5;entryDx=0;entryDy=0;dashed=1;fontSize=25;endArrow=none;endFill=0;fontStyle=1" parent="1" source="CXOL6XMP5lFYfug7rg1P-37" target="CXOL6XMP5lFYfug7rg1P-2" edge="1">
          <mxGeometry relative="1" as="geometry" />
        </mxCell>
        <mxCell id="CXOL6XMP5lFYfug7rg1P-147" style="edgeStyle=none;rounded=0;orthogonalLoop=1;jettySize=auto;html=1;exitX=1;exitY=0.3333333333333333;exitDx=0;exitDy=0;exitPerimeter=0;entryX=0;entryY=0.5;entryDx=0;entryDy=0;dashed=1;fontSize=25;endArrow=none;endFill=0;fontStyle=1" parent="1" source="CXOL6XMP5lFYfug7rg1P-37" target="CXOL6XMP5lFYfug7rg1P-107" edge="1">
          <mxGeometry relative="1" as="geometry" />
        </mxCell>
        <mxCell id="CXOL6XMP5lFYfug7rg1P-162" style="edgeStyle=none;rounded=0;orthogonalLoop=1;jettySize=auto;html=1;exitX=1;exitY=0.3333333333333333;exitDx=0;exitDy=0;exitPerimeter=0;entryX=0;entryY=0.5;entryDx=0;entryDy=0;dashed=1;fontSize=25;endArrow=none;endFill=0;fontStyle=1" parent="1" source="CXOL6XMP5lFYfug7rg1P-37" target="CXOL6XMP5lFYfug7rg1P-127" edge="1">
          <mxGeometry relative="1" as="geometry" />
        </mxCell>
        <mxCell id="CXOL6XMP5lFYfug7rg1P-37" value="Nhân viên&lt;br style=&quot;font-size: 25px;&quot;&gt;" style="shape=umlActor;verticalLabelPosition=bottom;verticalAlign=top;html=1;outlineConnect=0;fontSize=25;fontStyle=1" parent="1" vertex="1">
          <mxGeometry x="712" y="580" width="30" height="60" as="geometry" />
        </mxCell>
        <mxCell id="CXOL6XMP5lFYfug7rg1P-158" style="edgeStyle=none;rounded=0;orthogonalLoop=1;jettySize=auto;html=1;exitX=0;exitY=0.3333333333333333;exitDx=0;exitDy=0;exitPerimeter=0;entryX=1;entryY=0.5;entryDx=0;entryDy=0;dashed=1;fontSize=25;endArrow=none;endFill=0;fontStyle=1" parent="1" source="CXOL6XMP5lFYfug7rg1P-38" target="CXOL6XMP5lFYfug7rg1P-125" edge="1">
          <mxGeometry relative="1" as="geometry" />
        </mxCell>
        <mxCell id="CXOL6XMP5lFYfug7rg1P-159" style="edgeStyle=none;rounded=0;orthogonalLoop=1;jettySize=auto;html=1;exitX=0;exitY=0.3333333333333333;exitDx=0;exitDy=0;exitPerimeter=0;entryX=1;entryY=0.5;entryDx=0;entryDy=0;dashed=1;fontSize=25;endArrow=none;endFill=0;fontStyle=1" parent="1" source="CXOL6XMP5lFYfug7rg1P-38" target="CXOL6XMP5lFYfug7rg1P-127" edge="1">
          <mxGeometry relative="1" as="geometry" />
        </mxCell>
        <mxCell id="CXOL6XMP5lFYfug7rg1P-166" style="edgeStyle=none;rounded=0;orthogonalLoop=1;jettySize=auto;html=1;exitX=0;exitY=0.3333333333333333;exitDx=0;exitDy=0;exitPerimeter=0;entryX=0.5;entryY=1;entryDx=0;entryDy=0;dashed=1;fontSize=25;endArrow=none;endFill=0;fontStyle=1" parent="1" source="CXOL6XMP5lFYfug7rg1P-38" target="CXOL6XMP5lFYfug7rg1P-107" edge="1">
          <mxGeometry relative="1" as="geometry" />
        </mxCell>
        <mxCell id="CXOL6XMP5lFYfug7rg1P-38" value="Khách hàng" style="shape=umlActor;verticalLabelPosition=bottom;verticalAlign=top;html=1;outlineConnect=0;fontSize=25;fontStyle=1" parent="1" vertex="1">
          <mxGeometry x="2087" y="887" width="30" height="60" as="geometry" />
        </mxCell>
        <mxCell id="CXOL6XMP5lFYfug7rg1P-101" style="edgeStyle=none;rounded=0;orthogonalLoop=1;jettySize=auto;html=1;exitX=0;exitY=0.5;exitDx=0;exitDy=0;entryX=1;entryY=0;entryDx=0;entryDy=0;dashed=1;fontSize=25;fontStyle=1" parent="1" source="CXOL6XMP5lFYfug7rg1P-97" target="CXOL6XMP5lFYfug7rg1P-2" edge="1">
          <mxGeometry relative="1" as="geometry" />
        </mxCell>
        <mxCell id="CXOL6XMP5lFYfug7rg1P-97" value="Kiểm tra tình trạng" style="ellipse;whiteSpace=wrap;html=1;fontSize=25;fontStyle=1" parent="1" vertex="1">
          <mxGeometry x="1508" y="277" width="222" height="80" as="geometry" />
        </mxCell>
        <mxCell id="CXOL6XMP5lFYfug7rg1P-103" style="edgeStyle=none;rounded=0;orthogonalLoop=1;jettySize=auto;html=1;exitX=0;exitY=0.5;exitDx=0;exitDy=0;entryX=1;entryY=1;entryDx=0;entryDy=0;dashed=1;fontSize=25;fontStyle=1" parent="1" source="CXOL6XMP5lFYfug7rg1P-98" target="CXOL6XMP5lFYfug7rg1P-2" edge="1">
          <mxGeometry relative="1" as="geometry" />
        </mxCell>
        <mxCell id="CXOL6XMP5lFYfug7rg1P-98" value="Định nghĩa thiết bị" style="ellipse;whiteSpace=wrap;html=1;fontSize=25;fontStyle=1" parent="1" vertex="1">
          <mxGeometry x="1505" y="380" width="222" height="80" as="geometry" />
        </mxCell>
        <UserObject label="&amp;lt;&amp;lt;extend&amp;gt;&amp;gt;" placeholders="1" name="Variable" id="CXOL6XMP5lFYfug7rg1P-104">
          <mxCell style="text;html=1;strokeColor=none;fillColor=none;align=center;verticalAlign=middle;whiteSpace=wrap;overflow=hidden;fontSize=25;fontStyle=1" parent="1" vertex="1">
            <mxGeometry x="1340" y="261" width="158" height="40" as="geometry" />
          </mxCell>
        </UserObject>
        <UserObject label="&amp;lt;&amp;lt;extend&amp;gt;&amp;gt;" placeholders="1" name="Variable" id="CXOL6XMP5lFYfug7rg1P-105">
          <mxCell style="text;html=1;strokeColor=none;fillColor=none;align=center;verticalAlign=middle;whiteSpace=wrap;overflow=hidden;fontSize=25;fontStyle=1" parent="1" vertex="1">
            <mxGeometry x="1353" y="400" width="158" height="40" as="geometry" />
          </mxCell>
        </UserObject>
        <mxCell id="CXOL6XMP5lFYfug7rg1P-107" value="Quản lí lịch tập" style="ellipse;whiteSpace=wrap;html=1;fontSize=25;fontStyle=1" parent="1" vertex="1">
          <mxGeometry x="1020" y="637" width="222" height="80" as="geometry" />
        </mxCell>
        <mxCell id="CXOL6XMP5lFYfug7rg1P-113" style="edgeStyle=none;rounded=0;orthogonalLoop=1;jettySize=auto;html=1;exitX=0;exitY=0.5;exitDx=0;exitDy=0;entryX=1;entryY=0;entryDx=0;entryDy=0;dashed=1;fontSize=25;fontStyle=1" parent="1" source="CXOL6XMP5lFYfug7rg1P-108" target="CXOL6XMP5lFYfug7rg1P-107" edge="1">
          <mxGeometry relative="1" as="geometry" />
        </mxCell>
        <mxCell id="CXOL6XMP5lFYfug7rg1P-108" value="Thay đổi lịch tập" style="ellipse;whiteSpace=wrap;html=1;fontSize=25;fontStyle=1" parent="1" vertex="1">
          <mxGeometry x="1595" y="526" width="222" height="80" as="geometry" />
        </mxCell>
        <mxCell id="CXOL6XMP5lFYfug7rg1P-114" style="edgeStyle=none;rounded=0;orthogonalLoop=1;jettySize=auto;html=1;exitX=0;exitY=0.5;exitDx=0;exitDy=0;entryX=1;entryY=0.5;entryDx=0;entryDy=0;dashed=1;fontSize=25;fontStyle=1" parent="1" source="CXOL6XMP5lFYfug7rg1P-109" target="CXOL6XMP5lFYfug7rg1P-107" edge="1">
          <mxGeometry relative="1" as="geometry" />
        </mxCell>
        <mxCell id="CXOL6XMP5lFYfug7rg1P-109" value="Đặt lịch" style="ellipse;whiteSpace=wrap;html=1;fontSize=25;fontStyle=1" parent="1" vertex="1">
          <mxGeometry x="1574" y="643" width="222" height="80" as="geometry" />
        </mxCell>
        <mxCell id="CXOL6XMP5lFYfug7rg1P-110" value="Quản lí khách hàng" style="ellipse;whiteSpace=wrap;html=1;fontSize=25;fontStyle=1" parent="1" vertex="1">
          <mxGeometry x="967" y="1234" width="222" height="80" as="geometry" />
        </mxCell>
        <mxCell id="CXOL6XMP5lFYfug7rg1P-111" value="Quản lí nhân viên" style="ellipse;whiteSpace=wrap;html=1;fontSize=25;fontStyle=1" parent="1" vertex="1">
          <mxGeometry x="983" y="1425" width="222" height="80" as="geometry" />
        </mxCell>
        <mxCell id="CXOL6XMP5lFYfug7rg1P-112" value="Quản lí tiền" style="ellipse;whiteSpace=wrap;html=1;fontSize=25;fontStyle=1" parent="1" vertex="1">
          <mxGeometry x="963" y="981" width="222" height="80" as="geometry" />
        </mxCell>
        <mxCell id="CXOL6XMP5lFYfug7rg1P-115" style="edgeStyle=none;rounded=0;orthogonalLoop=1;jettySize=auto;html=1;exitX=0;exitY=0.5;exitDx=0;exitDy=0;entryX=1;entryY=1;entryDx=0;entryDy=0;dashed=1;fontSize=25;fontStyle=1" parent="1" source="CXOL6XMP5lFYfug7rg1P-116" target="CXOL6XMP5lFYfug7rg1P-107" edge="1">
          <mxGeometry relative="1" as="geometry">
            <mxPoint x="1408" y="725" as="targetPoint" />
          </mxGeometry>
        </mxCell>
        <mxCell id="CXOL6XMP5lFYfug7rg1P-116" value="Xem lịch" style="ellipse;whiteSpace=wrap;html=1;fontSize=25;fontStyle=1" parent="1" vertex="1">
          <mxGeometry x="1578" y="737" width="222" height="80" as="geometry" />
        </mxCell>
        <UserObject label="&amp;lt;&amp;lt;extend&amp;gt;&amp;gt;" placeholders="1" name="Variable" id="CXOL6XMP5lFYfug7rg1P-117">
          <mxCell style="text;html=1;strokeColor=none;fillColor=none;align=center;verticalAlign=middle;whiteSpace=wrap;overflow=hidden;fontSize=25;fontStyle=1" parent="1" vertex="1">
            <mxGeometry x="1416" y="532" width="158" height="40" as="geometry" />
          </mxCell>
        </UserObject>
        <UserObject label="&amp;lt;&amp;lt;extend&amp;gt;&amp;gt;" placeholders="1" name="Variable" id="CXOL6XMP5lFYfug7rg1P-118">
          <mxCell style="text;html=1;strokeColor=none;fillColor=none;align=center;verticalAlign=middle;whiteSpace=wrap;overflow=hidden;fontSize=25;fontStyle=1" parent="1" vertex="1">
            <mxGeometry x="1437" y="614" width="158" height="40" as="geometry" />
          </mxCell>
        </UserObject>
        <UserObject label="&amp;lt;&amp;lt;extend&amp;gt;&amp;gt;" placeholders="1" name="Variable" id="CXOL6XMP5lFYfug7rg1P-120">
          <mxCell style="text;html=1;strokeColor=none;fillColor=none;align=center;verticalAlign=middle;whiteSpace=wrap;overflow=hidden;fontSize=25;fontStyle=1" parent="1" vertex="1">
            <mxGeometry x="1359" y="744" width="158" height="40" as="geometry" />
          </mxCell>
        </UserObject>
        <mxCell id="CXOL6XMP5lFYfug7rg1P-133" style="edgeStyle=none;rounded=0;orthogonalLoop=1;jettySize=auto;html=1;exitX=0;exitY=0.5;exitDx=0;exitDy=0;entryX=1;entryY=0;entryDx=0;entryDy=0;dashed=1;fontSize=25;fontStyle=1" parent="1" source="CXOL6XMP5lFYfug7rg1P-125" target="CXOL6XMP5lFYfug7rg1P-112" edge="1">
          <mxGeometry relative="1" as="geometry" />
        </mxCell>
        <mxCell id="CXOL6XMP5lFYfug7rg1P-125" value="Nộp phí&amp;nbsp;" style="ellipse;whiteSpace=wrap;html=1;fontSize=25;fontStyle=1" parent="1" vertex="1">
          <mxGeometry x="1591" y="859" width="222" height="80" as="geometry" />
        </mxCell>
        <mxCell id="CXOL6XMP5lFYfug7rg1P-130" style="edgeStyle=none;rounded=0;orthogonalLoop=1;jettySize=auto;html=1;exitX=0;exitY=0.5;exitDx=0;exitDy=0;entryX=1;entryY=0.5;entryDx=0;entryDy=0;dashed=1;fontSize=25;fontStyle=1" parent="1" source="CXOL6XMP5lFYfug7rg1P-126" target="CXOL6XMP5lFYfug7rg1P-112" edge="1">
          <mxGeometry relative="1" as="geometry" />
        </mxCell>
        <mxCell id="CXOL6XMP5lFYfug7rg1P-126" value="Trả lương" style="ellipse;whiteSpace=wrap;html=1;fontSize=25;fontStyle=1" parent="1" vertex="1">
          <mxGeometry x="1583" y="947" width="222" height="80" as="geometry" />
        </mxCell>
        <mxCell id="CXOL6XMP5lFYfug7rg1P-132" style="edgeStyle=none;rounded=0;orthogonalLoop=1;jettySize=auto;html=1;exitX=0;exitY=0.5;exitDx=0;exitDy=0;entryX=1;entryY=1;entryDx=0;entryDy=0;dashed=1;fontSize=25;fontStyle=1" parent="1" source="CXOL6XMP5lFYfug7rg1P-127" target="CXOL6XMP5lFYfug7rg1P-112" edge="1">
          <mxGeometry relative="1" as="geometry" />
        </mxCell>
        <mxCell id="CXOL6XMP5lFYfug7rg1P-127" value="Xem lịch sử&amp;nbsp;" style="ellipse;whiteSpace=wrap;html=1;fontSize=25;fontStyle=1" parent="1" vertex="1">
          <mxGeometry x="1586" y="1043" width="222" height="80" as="geometry" />
        </mxCell>
        <UserObject label="&amp;lt;&amp;lt;extend&amp;gt;&amp;gt;" placeholders="1" name="Variable" id="CXOL6XMP5lFYfug7rg1P-134">
          <mxCell style="text;html=1;strokeColor=none;fillColor=none;align=center;verticalAlign=middle;whiteSpace=wrap;overflow=hidden;fontSize=25;fontStyle=1" parent="1" vertex="1">
            <mxGeometry x="1347" y="891" width="158" height="40" as="geometry" />
          </mxCell>
        </UserObject>
        <UserObject label="&amp;lt;&amp;lt;extend&amp;gt;&amp;gt;" placeholders="1" name="Variable" id="CXOL6XMP5lFYfug7rg1P-135">
          <mxCell style="text;html=1;strokeColor=none;fillColor=none;align=center;verticalAlign=middle;whiteSpace=wrap;overflow=hidden;fontSize=25;fontStyle=1" parent="1" vertex="1">
            <mxGeometry x="1365" y="961" width="158" height="40" as="geometry" />
          </mxCell>
        </UserObject>
        <UserObject label="&amp;lt;&amp;lt;extend&amp;gt;&amp;gt;" placeholders="1" name="Variable" id="CXOL6XMP5lFYfug7rg1P-136">
          <mxCell style="text;html=1;strokeColor=none;fillColor=none;align=center;verticalAlign=middle;whiteSpace=wrap;overflow=hidden;fontSize=25;fontStyle=1" parent="1" vertex="1">
            <mxGeometry x="1331" y="1035" width="158" height="40" as="geometry" />
          </mxCell>
        </UserObject>
        <mxCell id="CXOL6XMP5lFYfug7rg1P-138" style="edgeStyle=none;rounded=0;orthogonalLoop=1;jettySize=auto;html=1;exitX=0.5;exitY=1;exitDx=0;exitDy=0;dashed=1;fontSize=25;fontStyle=1" parent="1" source="CXOL6XMP5lFYfug7rg1P-111" target="CXOL6XMP5lFYfug7rg1P-111" edge="1">
          <mxGeometry relative="1" as="geometry" />
        </mxCell>
      </root>
    </mxGraphModel>
  </diagram>
</mxfile>
